<?xml version="1.0" encoding="UTF-8"?>
<svg width="59px" height="18px" viewBox="0 0 59 18" version="1.1" xmlns="http://www.w3.org/2000/svg" xmlns:xlink="http://www.w3.org/1999/xlink">
    <!-- Generator: Sketch 41.2 (35397) - http://www.bohemiancoding.com/sketch -->
    <title>Shuttl_msite_logo</title>
    <desc>Created with Sketch.</desc>
    <defs></defs>
    <g id="Page-1" stroke="none" stroke-width="1" fill="none" fill-rule="evenodd">
        <g id="Referral_welcome_v2" transform="translate(-20.000000, -99.000000)" fill="#FFFFFF">
            <g id="Top-Bar">
                <g id="Shuttl_msite_logo" transform="translate(20.000000, 99.000000)">
                    <path d="M6.99694534,7.30945576 C10.1053856,7.87260566 13.5684008,8.96442688 13.3083791,13.0099118 C13.15473,16.2968683 9.92809812,17.8369109 6.68964707,17.8369109 C3.98305841,17.8369109 1.30010809,16.4232898 0.0472766577,13.6650046 L2.71840782,12.5042262 C3.49847267,14.1591973 5.09405987,15.0671329 6.74874289,15.0671329 C8.55707504,15.0671329 10.2826731,14.3086044 10.3890455,12.8030404 C10.5426947,10.8492551 8.55707504,10.3435695 6.38234879,10.0217695 C3.40391935,9.58504105 0.390032426,8.24037701 0.366394097,4.80401338 C0.567319892,1.65497112 3.62848348,0.0229857099 6.73692372,0.0229857099 C9.39623572,0.0229857099 11.9018986,1.02286409 13.1310917,3.74667072 L10.495418,4.87297051 C9.73899149,3.26397081 8.36796841,2.6548495 6.73692372,2.6548495 C5.01132572,2.6548495 3.38028103,3.43636364 3.27390855,4.89595622 C3.14389774,6.41301307 5.1176982,6.96467011 6.99694534,7.30945576 L6.99694534,7.30945576 Z" id="Shape"></path>
                    <path d="M18.0715024,0.310307084 L18.0715024,5.37865613 C21.132666,4.11444208 25.4939377,5.22924901 25.4939377,9.29771967 L25.4939377,17.5610824 L22.7637107,17.5610824 L22.7637107,9.27473396 C22.7637107,7.05661295 19.5607171,6.98765582 18.0715024,7.88409851 L18.0715024,17.5610824 L15.3176371,17.5610824 L15.3176371,0.310307084 L18.0715024,0.310307084 L18.0715024,0.310307084 Z" id="Shape"></path>
                    <path d="M37.7267728,16.7680754 C33.4364162,18.5724536 27.5504723,18.4000608 27.5504723,13.4236546 L27.5504723,4.94192764 L30.3043376,4.94192764 L30.3043376,13.469626 C30.3988909,15.5613256 33.3655012,15.9061113 34.9965459,15.05564 L34.9965459,4.94192764 L37.7267728,4.94192764 L37.7267728,16.7680754 L37.7267728,16.7680754 Z" id="Shape"></path>
                    <path d="M45.4092297,17.6989967 C42.3717045,18.1357251 39.7951266,16.8944968 39.7951266,13.2857403 L39.7951266,0.310307084 L42.5253536,0.310307084 L42.5253536,4.94192764 L45.0073781,4.94192764 L45.0073781,7.61976285 L42.5253536,7.61976285 L42.5253536,13.2512618 C42.5253536,15.2510185 43.9081958,15.37744 45.4092297,15.37744 L45.4092297,17.6989967 L45.4092297,17.6989967 Z" id="Shape"></path>
                    <path d="M52.2407068,17.6989967 C49.2031815,18.1357251 46.6266037,16.8944968 46.6266037,13.2857403 L46.6266037,0.310307084 L49.3568306,0.310307084 L49.3568306,4.94192764 L51.8388552,4.94192764 L51.8388552,7.61976285 L49.3568306,7.61976285 L49.3568306,13.2512618 C49.3568306,15.2510185 50.7396729,15.37744 52.2407068,15.37744 L52.2407068,17.6989967 L52.2407068,17.6989967 Z" id="Shape"></path>
                    <path d="M58.5521406,17.6645181 C55.349147,17.6645181 53.5408149,16.009547 53.5408149,13.3317118 L53.5408149,0.310307084 L56.2946802,0.310307084 L56.2946802,13.3317118 C56.2946802,14.3545759 56.9920109,15.1590757 58.5521406,15.1590757 L58.5521406,17.6645181 L58.5521406,17.6645181 Z" id="Shape"></path>
                </g>
            </g>
        </g>
    </g>
</svg>