<svg width="16" height="19" viewBox="0 0 16 19" fill="none" xmlns="http://www.w3.org/2000/svg">
<path d="M13.4747 12.1845L13.1711 13.7128C13.1367 13.8825 13.0447 14.0352 12.9107 14.1448C12.7767 14.2545 12.6089 14.3145 12.4357 14.3147H5.29147C4.9408 14.3147 4.27086 14.333 4.19497 13.9902L2.52798 4.71051C2.52798 4.71051 2.52798 4.57705 2.52798 4.38601C2.52798 3.77626 2.52798 2.45471 2.51489 1.76907C2.51692 1.65959 2.5615 1.55521 2.63917 1.47803C2.71683 1.40084 2.8215 1.35693 2.93099 1.35559H4.48022L4.50115 1.49952L4.60321 2.28461L4.73668 3.29475V4.69743L5.75729 10.9231C5.80439 11.2974 6.30946 11.2895 6.68369 11.2895H12.7393C12.8501 11.2893 12.9596 11.3137 13.0599 11.361C13.1601 11.4082 13.2486 11.4772 13.319 11.5628C13.3893 11.6485 13.4398 11.7486 13.4667 11.8562C13.4937 11.9637 13.4964 12.0758 13.4747 12.1845Z" fill="black"/>
<path d="M5.05591 7.66763H10.0281C10.1658 7.656 10.3024 7.69927 10.4083 7.788C10.5142 7.87673 10.5807 8.00373 10.5934 8.1413V8.74581C10.5801 8.88291 10.5133 9.00925 10.4075 9.09743C10.3017 9.18561 10.1654 9.22852 10.0281 9.21686H5.05591" fill="black"/>
<path d="M4.73668 1.75599V4.26826C4.73668 4.3793 4.69257 4.48581 4.61405 4.56433C4.53552 4.64285 4.42902 4.68697 4.31797 4.68697H3.06446C2.96974 4.68703 2.87779 4.65497 2.80365 4.59603C2.7295 4.53709 2.67752 4.45476 2.65621 4.36247C2.64765 4.33179 2.64325 4.3001 2.64313 4.26826V1.74029C2.64719 1.63129 2.69337 1.52811 2.77195 1.45246C2.85053 1.37681 2.95538 1.33458 3.06446 1.33466H4.31797C4.37801 1.33439 4.4374 1.34711 4.49206 1.37195C4.54672 1.3968 4.59535 1.43318 4.63462 1.47859C4.70002 1.55629 4.73613 1.65444 4.73668 1.75599Z" fill="black"/>
<path d="M12.5351 15.775H4.71048C4.42576 15.775 4.19495 16.0058 4.19495 16.2905V16.9918C4.19495 17.2766 4.42576 17.5074 4.71048 17.5074H12.5351C12.8199 17.5074 13.0507 17.2766 13.0507 16.9918V16.2905C13.0507 16.0058 12.8199 15.775 12.5351 15.775Z" fill="black"/>
</svg>
